<?xml version="1.0" encoding="utf-8"?>
<!-- Generator: Adobe Illustrator 25.2.3, SVG Export Plug-In . SVG Version: 6.00 Build 0)  -->
<svg version="1.1" id="Layer_1" xmlns="http://www.w3.org/2000/svg" xmlns:xlink="http://www.w3.org/1999/xlink" x="0px" y="0px"
	 viewBox="0 0 71.3 49.8" style="enable-background:new 0 0 71.3 49.8;" xml:space="preserve">
<style type="text/css">
	.st0{fill:#FFFFFF;}
</style>
<g id="Clock">
</g>
<g id="Calendar">
</g>
<g id="Document">
</g>
<g id="Bin">
</g>
<g id="Setting">
</g>
<rect x="2.9" y="4.2" class="st0" width="65.4" height="41.5"/>
<g id="Layer_6">
	<g>
		<path d="M64.9,49.8H6.3c-3.5,0-6.3-3.1-6.3-6.9v-36C0,3.1,2.8,0,6.3,0h58.6c3.5,0,6.3,3.1,6.3,6.9v36
			C71.3,46.7,68.4,49.8,64.9,49.8z M6.3,6.2c-0.7,0-1.2,0.5-1.2,0.8v36c0,0.3,0.4,0.8,1.2,0.8h58.6c0.7,0,1.2-0.5,1.2-0.8v-36
			c0-0.3-0.4-0.8-1.2-0.8L6.3,6.2L6.3,6.2z"/>
	</g>
	<polygon points="67.4,4.9 35.6,23.4 4.5,4.9 1,9.5 35.5,30.1 70.8,9.5 	"/>
</g>
</svg>
